<?xml version='1.0' encoding='utf-8'?>
<!-- Generator: Adobe Illustrator 26.1.0, SVG Export Plug-In . SVG Version: 6.00 Build 0)  -->
<svg xmlns:xlink="http://www.w3.org/1999/xlink" y="0px" id="Слой_1" version="1.1" x="0px" xmlns="http://www.w3.org/2000/svg" xml:space="preserve" viewBox="0 0 595.3 841.9" style="enable-background:new 0 0 595.3 841.9;">
 <style type="text/css">
	.st0{fill:#33B5BE;}
</style>
 <path class="st0" d="M-166.4,336.2c2.7,0.9,6.5,0.2,7.7-4.1c0.5-1.6,0.3-3.1,0.2-4.7c-0.5-5.7-0.6-11.5-0.2-17.2  c0.5-7.7,2-15.1,4.5-22.4c4.3-12.4,10.9-23.5,20.6-32.5c16.9-15.7,36.9-23.6,60-23.7c5.6,0,11.3,0.5,16.8,1.4  c9.4,1.6,18.2,4.7,26.5,9.5c10,5.8,18.3,13.4,25.3,22.6c11.9,15.7,17.1,33.5,16.7,53.1c0,0.3,0,0.5-0.1,0.8  c-0.3,0.7-0.8,0.8-1.3,0.2c-1.1-1.2-2.1-2.4-3.2-3.6c-0.3-0.4-0.7-0.7-1.1-1.1c-1.7-1.4-3.6-1.6-5.6-0.8c-2,0.9-3.2,2.4-3.4,4.7  c-0.2,1.7,0.3,3.1,1.3,4.5c1.5,2.1,3.3,4.1,5,6.1c3.3,3.8,6.5,7.7,9.9,11.3c0.6,0.7,1.3,1.3,2,1.7c2.1,1.2,4.3,1.1,6.2-0.4  c0.3-0.2,0.5-0.4,0.7-0.7c4.6-4.4,9-8.8,13.5-13.3c1.2-1.2,2.4-2.4,3.5-3.7c1.6-1.8,1.8-4.1,0.7-6.2c-1.1-2.2-3.2-3.3-5.4-3  c-1.4,0.2-2.5,0.8-3.5,1.7c-0.8,0.7-1.5,1.4-2.3,2.1c-1.2,1.2-2.5,2.3-3.7,3.5c-0.2,0.1-0.3,0.4-0.6,0.3c-0.3-0.1-0.3-0.4-0.4-0.6  c0-0.7,0-1.3,0-2c0.2-6-0.1-12-0.9-18c-1.4-9.9-4.3-19.4-8.9-28.3C9.1,263.7,3,254.8-4.7,247c-13.8-13.9-30.5-22-49.7-25.4  c-5.7-1-11.4-1.6-17.1-1.8c-0.3,0-0.6,0.1-0.8-0.2c-1.8,0-3.7,0-5.5,0c-0.4,0.3-0.9,0.2-1.3,0.2c-3.9,0.2-7.8,0.6-11.7,1.2  c-9.5,1.6-18.6,4.6-27.2,9c-9.5,4.8-18.1,10.9-25.7,18.4c-8.9,9-15.6,19.4-20.3,31.1c-3.8,9.6-6.1,19.5-6.7,29.9  c-0.2,3.3-0.3,6.6-0.3,9.8c-0.1,3.9,0.1,7.8,0.6,11.7C-170,333.4-168.9,335.4-166.4,336.2z"/>
 <path class="st0" d="M46.5,370.8c-3.9-7.8-10.1-12.4-18.7-13.8c-2.1-0.3-4.3-0.3-6.4-0.2c-10,0.2-19.9,0.1-29.9,0  c-2.6,0-5.2,0.1-7.8-0.2c-4.1-0.4-7.3-2.2-9.3-5.9c-0.6-1.1-1.2-2.3-1.6-3.5c-0.7-1.8-1.3-3.5-2-5.3c-1.1-2.9-2.6-5.7-4.5-8.2  c-2.7-3.4-6-5.8-10.2-7c-2.4-0.7-4.9-0.8-7.4-0.8c-5.2,0-10.3,0.1-15.5,0.1c-9.3,0-18.6,0-27.9,0c-1.6,0-3.2,0.1-4.9,0.3  c-4.6,0.6-8.6,2.4-11.9,5.8c-1.5,1.6-2.8,3.5-3.8,5.4c-1,2-1.8,4-2.7,6.1c-1,2.3-1.9,4.7-3,7c-2.2,4.2-5.6,6.4-10.5,6.3  c-2.2-0.1-4.4,0-6.5,0c-0.3,0-0.6,0-0.9,0c-0.9-0.1-1.4-0.6-1.5-1.5c0-0.5,0-1,0-1.4c0-1.6,0-3.1-0.4-4.6c-1-3.9-4-5.3-6.7-5.3  c-8,0-16.1-0.1-24.1,0c-3.5,0-5.8,2.1-6.4,5.5c-0.3,1.8-0.2,3.5-0.2,5.3c0,1.8-0.6,2.6-2.2,3.3c-0.8,0.3-1.5,0.5-2.3,0.9  c-6.5,3.2-10.7,8.3-13,15.1c-1.2,3.8-1.5,7.7-1.5,11.7c0,14,0,28,0,41.9c0,8.3,0,16.5,0,24.8c0,5.2-0.1,10.4,0,15.6  c0,3.3,0,6.6,0.6,9.9c1.4,7.6,5.3,13.4,12.2,17.1c3.7,2,7.7,2.8,11.9,2.8c13,0,26,0,38.9,0c3.6,0,7.2,0,10.7,0c3,0,5.5-2.1,6.1-5  c0.1-0.6,0.2-1.2,0.1-1.8c-0.5-2.7-2.4-4.6-5.1-5.2c-0.9-0.2-1.8-0.2-2.6-0.2c-11.4,0-22.7,0-34.1,0c-4.2,0-8.4,0-12.6,0.1  c-1.4,0-2.9-0.1-4.3-0.5c-4.6-1.2-7.7-4-9.1-8.6c-0.4-1.5-0.6-3.1-0.5-4.7c0.1-5.3,0.2-10.5,0.2-15.8c-0.1-8.9-0.1-17.8-0.1-26.7  c0-9.4,0-18.8,0-28.2c0-4.3,0-8.6,0-12.8c0-2.7,0-5.4,0.1-8.1c0.2-4.4,2.4-7.7,6.4-9.6c1.9-0.9,3.9-1.2,6-1.2c2.9,0,5.9,0,8.8,0  c8.1,0,16.3,0,24.4,0c3.6,0,7.2,0.2,10.7-0.4c6.5-1,11.8-4,15.8-9.2c1.6-2.1,2.9-4.5,3.9-6.9c1.3-3.1,2.7-6.1,4.2-9.1  c1.2-2.5,3.1-4.3,5.9-4.9c0.9-0.2,1.9-0.3,2.9-0.3c12,0,24,0,36.1,0c3.2,0,6.4,0,9.6,0c3.6,0,6.2,1.6,7.7,4.9  c0.1,0.2,0.2,0.3,0.2,0.5c1.7,3.7,3.4,7.4,5.1,11.1c2.4,5.2,6,9.3,11.2,11.8c3.8,1.8,7.8,2.7,12,2.7c12.6,0,25.3,0,37.9,0  c0.6,0,1.3,0,1.9,0c4.7,0.3,8.9,3.9,10,8.5c0.4,1.6,0.4,3.1,0.4,4.7c0,15.6,0,31.1,0,46.7c0,14.3,0,28.7,0,43c0,1,0,1.9-0.2,2.9  c-0.4,3.2-1.8,5.7-4.4,7.6c-2.1,1.5-4.4,2.4-7,2.5c-1.7,0.1-3.5,0-5.2,0c-13,0-26,0-39.1,0c-2.2,0-4.5-0.1-6.7,0.2  c-2.5,0.3-4.2,1.6-4.9,4.1c-0.7,2.5-0.1,4.6,1.9,6.3c1.3,1.1,2.8,1.6,4.5,1.6c5.2,0,10.4,0,15.6,0c11,0,21.9,0,32.9,0  c2,0,3.9,0.1,5.8-0.4c8.4-2,14.2-7,17.5-15c1.3-3.3,1.8-6.8,1.8-10.3c0-6.5,0-12.9,0-19.4c0-23.4,0-46.8,0-70.3  C49.1,378.3,48.3,374.4,46.5,370.8z"/>
 <path class="st0" d="M-17.5,454.8c6.2-12.5,7.6-25.7,5-39.3C-15,402.3-21,391-30.7,381.8c-11.9-11.4-26.3-16.9-42.7-17  c-4.1,0-8.3,0.3-12.3,1.2c-17,3.5-30.3,12.6-39.8,27.1c-5.7,8.7-8.9,18.4-9.9,28.8c-0.6,6.3-0.3,12.5,1.1,18.7  c3,13.6,9.6,25,20.1,34.1c15.2,13.2,32.9,18.4,52.7,14.3C-41.4,484.8-26.7,473.2-17.5,454.8z M-106.8,464.8c-8.7-8-14-18-15.9-29.6  c-2.1-12.9,0.8-24.9,7.9-35.7c5.9-9.1,13.9-15.6,24.1-19.4c5.5-2,11.2-2.9,17.1-2.7c2.2-0.1,4.4,0,6.7,0.3c6.9,0.8,13.2,3,19.1,6.6  c12.6,7.9,20.3,19.2,23.4,33.7c1.1,5,1.4,10.2,0.8,15.3c-1,9.2-4.3,17.4-10,24.7c-8.2,10.5-19,17.1-32.2,19.2  C-81.4,479.6-95.2,475.5-106.8,464.8z"/>
 <path class="st0" d="M-28.5,266.2c-2.7-0.7-5.5-0.7-8.2-0.3c-5.2,0.7-9.1,3.2-11.6,7.9c-0.5,0.9-0.9,1.9-1.3,2.8  c-3.5,9.3-3.4,18.5-0.1,27.8c1.8,5.2,5.5,8.6,10.8,10.1c2.4,0.7,4.9,0.9,7.4,0.6c7.2-0.8,12.2-4.5,14.7-11.4  c1.5-4.2,2.3-8.6,2.3-13.1c0-1.6-0.1-3.2-0.3-4.9c-0.5-3.7-1.3-7.3-2.9-10.6C-19.9,270.4-23.5,267.4-28.5,266.2z M-26.9,301.3  c-0.9,2.4-2.6,3.7-5.1,4c-1.1,0.1-2.1,0.1-3.2-0.1c-2-0.4-3.5-1.6-4.4-3.4c-0.8-1.7-1.4-3.6-1.5-5.5c-0.4-4.3-0.4-8.5,0.2-12.8  c0.2-1.4,0.5-2.8,1.1-4c1.1-2.2,2.7-3.8,5.2-4.2c3.1-0.5,6.5,0.5,7.8,4.6c1.1,3.5,1.7,7.1,1.7,10.5C-25,294.3-25.6,297.9-26.9,301.3  z"/>
 <path class="st0" d="M-63,268.2c0.3-0.5,0.8-0.9,0.5-1.5c-0.3-0.6-1-0.4-1.5-0.4c-2.8,0-5.6,0-8.4,0c-1.6,0-2.6,0.6-3.4,2  c-1.7,3-3.4,5.9-5.1,8.8c-2,3.4-4,6.8-5.9,10.3c-2.4,4.4-3.5,9.2-2.8,14.2c0.9,6.1,4.2,10.3,10,12.5c2.8,1.1,5.7,1.2,8.7,1.1  c2.9-0.1,5.6-0.8,8.2-2.2c6.7-3.7,10-12.5,7.3-19.9c-2.1-5.9-6.3-9.5-12.7-10.1c-1.3-0.1-2.6-0.1-4.1-0.2c0.3-0.5,0.5-0.9,0.7-1.2  C-68.6,277-65.8,272.6-63,268.2z M-65.2,299c-0.1,4.4-4,7.3-8.5,6.6c-3.7-0.5-5.7-2.9-5.8-6.6c0-0.7,0-1.5,0.2-2.2  c0.8-3.5,3.4-5.5,7-5.5C-68.2,291.3-65,294-65.2,299z"/>
 <path class="st0" d="M-106.9,305.1c-0.8,0.4-1.7,0.7-2.6,0.8c-4,0.5-7.2-1.5-7.8-4.6c0,0,0-0.1,0-0.1c-0.6-1.5-1.5-2.1-3.1-1.8  c-1.5,0.2-2.9,0.5-4.3,1c-0.6,0.2-1.2,0.5-1.7,0.9c-0.8,0.6-1.1,1.4-0.9,2.4c0.1,0.4,0.2,0.9,0.4,1.3c1.8,4,4.5,7.1,8.7,8.7  c5,1.9,10.1,2.2,15.2,0.5c3.7-1.2,6.6-3.4,8.3-7c1.6-3.3,1.8-6.7,1.1-10.2c-0.6-2.8-2.1-5-4.7-6.4c-0.2-0.1-0.3-0.2-0.5-0.3  c-0.9-0.6-0.9-1-0.2-1.8c0.4-0.4,0.8-0.8,1.3-1.2c5-5.2,4.6-12.9-0.8-17.7c-3.2-2.8-7-4-11.4-3.9c-1.5,0-3.2,0.2-4.9,0.5  c-5.7,1.2-9.6,4.5-11.6,10.1c-0.1,0.3-0.2,0.7-0.3,1.1c-0.2,1.1,0.2,1.7,1.2,2c0.2,0.1,0.4,0.1,0.6,0.2c1.7,0.4,3.3,0.8,4.9,1.3  c1.8,0.6,2.6,0.2,3.3-1.7c0.1-0.3,0.2-0.6,0.3-0.8c0.5-1,1.2-1.9,2.1-2.5c2-1.1,4-1.3,6.2-0.5c1.1,0.4,1.9,1.1,2.6,2  c2.2,3.1,0.8,7.1-2.9,8c-0.5,0.1-1,0.2-1.5,0.2c-0.9,0.1-1.8,0.1-2.8,0.2c-0.7,0.1-1.3,0.3-1.4,1.1c-0.1,1.6-0.5,3.3-0.2,5  c0.3,2,0.8,2.5,2.9,2.3c1.4-0.1,2.8,0.1,4.1,0.5c1.2,0.3,2.2,1,2.9,2.1C-102.6,299.7-103.8,303.6-106.9,305.1z"/>
 <g>
  <path class="st0" d="M473.7,391.1c-4.4-9.8-11.2-17.5-21.3-21.7c-11.5-4.8-23.3-5.2-35.2-1.4c-10,3.2-17.1,10.1-22.4,19   c-5.8,9.9-8.5,20.6-9.1,32c-0.2,4.1-0.3,8.3-0.3,12.5c-0.1,10.6,1.1,21.1,4.6,31.2c6,17,18,27.1,35.6,30.6c1.2,0.2,2.6,0,3.7,0.7   c2.6,0,5.1,0,7.7,0c0.5-0.3,1-0.3,1.6-0.4c19.1-2.9,32.1-13.2,38.3-31.6c5.1-15.2,6.2-30.8,3.7-46.7   C479.3,406.9,477.2,398.8,473.7,391.1z M456.3,436.5c-0.2,5.6-0.9,11.1-2.4,16.5c-0.3,1-0.6,2-1,2.9c-3.3,8.3-9.7,12.7-18.4,12.9   c-8.8,0.1-15.7-4.3-19.2-12.5c-1.9-4.4-2.9-9.1-3.5-13.9c-0.6-4.7-0.7-9.4-0.7-14.1c0.1-5.8,0.2-11.5,1.1-17.2   c0.6-3.6,1.5-7,3.1-10.3c3.2-6.8,8.6-10.5,16.1-11.1c2.1-0.2,4.3-0.1,6.4,0.2c5,0.8,8.8,3.3,11.5,7.4c3.4,5.1,5.3,10.9,6,17   C456,421.8,456.6,429.1,456.3,436.5z"/>
  <path class="st0" d="M930.8,479c-0.1-0.3-0.3-0.6-0.4-0.9c-0.5-2-0.6-2.2-2.7-2.1c-1.2,0-2.4,0.2-3.6,0.2c-3.1,0-4.9-1.5-5.4-4.7   c-0.2-1-0.3-2.1-0.3-3.1c0-8.6-0.1-17.3-0.1-25.9c0-3.8,0.9-4.6,4.7-4.6c0.3,0,0.6,0,1,0c1.1,0.1,2.2,0,3.3-0.2   c2-0.5,2.9-1.4,2.9-3.5c0.1-2.4,0.1-4.8,0-7.2c-0.1-2-0.8-2.9-2.8-3.2c-1.3-0.2-2.5-0.4-3.8-0.6c-4.1-0.6-4.9-1.6-5.3-5.7   c0-0.4-0.1-0.8-0.1-1.2c0-1.7,0-3.4-0.1-5c0-1.4-0.6-2.5-2.1-2.9c-2.2-0.5-4.4-0.9-6.6-0.8c-3.7,0.2-5.4,1.8-6.2,5.5   c-0.4,2.1-0.4,4.1-0.5,6.2c-0.1,3.1-1.2,4.2-4.2,4.4c-2.6,0.2-3.4,1-3.5,3.6c-0.1,1.8,0,3.7,0,5.5c0,4.2,0.4,4.7,4.7,5.2   c1.8,0.2,2.7,1,2.9,2.9c0.1,0.7,0.1,1.4,0.1,2.2c0,10.2,0,20.5,0,30.7c0,1.8,0.1,3.5,0.5,5.2c1.2,5.3,4.2,9.1,9.4,10.9   c4.3,1.5,8.8,1.4,13.3,0.7c2.9-0.5,4-2,4.2-5c0.1-1.1-0.2-2.2,0.4-3.3C930.8,481.3,930.8,480.1,930.8,479z"/>
  <path class="st0" d="M368.7,367.8c-0.6-0.1-1.3-0.1-1.9-0.1c-5.8,0-11.7,0-17.5,0c-3.8,0-5,0.8-6.5,4.4   c-7.6,18.2-15.2,36.5-22.8,54.7c-0.3,0.7-0.4,1.5-1.3,2.3c-0.6-1.4-1.2-2.6-1.7-3.9c-5.1-12.4-10.2-24.8-15.3-37.2   c-2.2-5.2-4.3-10.5-6.4-15.8c-1.2-2.9-3.2-4.6-6.4-4.5c-6.5,0.2-13,0-19.4,0c-3.5,0-4.7,1.3-4.7,4.8c0.1,3.7,0.5,7.3,0.4,11   c-0.5,11.1-0.4,22.2-0.4,33.4c0,22.8,0,45.6,0,68.4c0,0.6,0,1.1,0,1.7c0.1,2.7,1.3,3.9,4,4c0.6,0,1.3,0,1.9,0c3.7,0,7.4-0.1,11,0.1   c5.7,0.3,7.1-1,7.1-6.8c0-11.8,0-23.7-0.1-35.5c0-10.4-0.1-20.8-0.1-31.2c0-0.7-0.2-1.5,0.6-2c0.8,0.4,0.9,1.3,1.2,2   c6.4,14.8,12.7,29.7,19,44.5c0.5,1.2,1.1,2.5,1.8,3.7c1,1.6,2.4,2.7,4.2,3c2.1,0.4,4.3,0.4,6.4-0.2c1.9-0.5,3.3-1.6,4.2-3.3   c0.5-0.8,0.8-1.7,1.2-2.6c6.1-15,12.4-30,18.9-44.8c0.3-0.8,0.5-1.6,1.4-2.4c0.1,0.6,0.2,0.9,0.3,1.3c0.7,3.4,0.4,6.9,0.4,10.3   c0,19.2,0,38.4-0.1,57.6c0,1.3,0,2.5,0.3,3.8c0.5,1.5,1.4,2.5,3,2.7c0.8,0.1,1.6,0.2,2.4,0.1c3.4-0.2,6.7-0.2,10.1-0.2   c1.7,0,3.4,0.1,5,0c1.9-0.1,2.9-1,3.2-3c0.2-0.9,0.2-1.9,0.2-2.9c0-37.1,0-74.2,0-111.4c0-0.8,0-1.6-0.1-2.4   C372.1,369.1,371.1,368.1,368.7,367.8z"/>
  <path class="st0" d="M580.6,470.6c0-30.9,0-61.7,0-92.6c0-2.1,0-4.2-0.1-6.2c-0.1-3-0.8-3.8-3.9-4c-0.2,0-0.5,0-0.7,0   c-5,0-9.9-0.1-14.9,0c-3.1,0-4.5,1.3-4.7,4.5c-0.1,1.9,0.1,3.8,0.1,5.8c0,19.8,0,39.7,0,59.5c0,0.5,0,1,0,1.4c0,0.3,0,0.7-0.4,0.8   c-0.5,0.2-0.7-0.2-0.9-0.5c-0.2-0.3-0.4-0.7-0.5-1.1c-8.7-17.3-17.4-34.6-26-51.9c-2.2-4.4-4.3-8.8-6.5-13.1   c-2.2-4.3-5.8-6.2-10.7-5.5c-2.6,0.4-5.3,0.4-7.9,0.2c-2.2-0.1-4.5-0.2-6.7,0.1c-1.9,0.3-2.5,0.8-2.9,2.7c-0.3,1.3-0.2,2.5-0.2,3.8   c0,35,0,70.1,0,105.1c0,2.4,0,4.8,0,7.2c0,3.1,1.1,4.2,4.2,4.2c5.4,0,10.7,0,16.1,0c3.4,0,4.3-0.8,4.4-4.2c0-0.3,0-0.6,0-1   c-0.1-10.1-0.1-20.2-0.2-30.2c-0.1-11.8,0.2-23.5-0.3-35.3c0-0.9,0-1.7,0.6-2.6c1,0.2,1.3,0.9,1.6,1.5c0.4,0.9,0.8,1.7,1.2,2.6   c8.6,17.1,17.2,34.3,25.8,51.4c2.2,4.3,4.4,8.5,6.4,12.9c1.6,3.4,4,5.1,7.9,4.8c4.4-0.3,8.8-0.2,13.2,0c0.7,0,1.4,0,2.2,0   c2.2-0.2,3.3-1.3,3.7-3.4c0.1-0.8,0.2-1.6,0.2-2.4C580.5,480.4,580.6,475.5,580.6,470.6z"/>
  <path class="st0" d="M123.6,371c-6.4-2.3-13-3.2-19.8-3.3c-9.2-0.1-18.4-0.1-27.6-0.1c-0.7,0-1.4,0-2.2,0.1c-2.6,0.3-3.8,1.4-4.3,4   c-0.5,2.1-0.1,4.3-0.1,6.4c0.3,17.1,0,34.2,0,51.3c0,18.4,0,36.8,0,55.2c0,0.9,0.1,1.8,0.2,2.6c0.3,2.2,1.4,3.2,3.6,3.6   c0.6,0.1,1.3,0.1,1.9,0.1c8.7,0,17.4,0,26.1,0c5.4,0,10.9-0.3,16.2-1.4c11.4-2.5,20.9-8.1,27.3-18c7.3-11.2,11.3-23.6,12.2-36.9   c1-14.4-2.3-27.9-8.6-40.8C143.3,383,135.1,375.2,123.6,371z M129.5,444.7c-0.7,2.9-1.6,5.7-2.8,8.4c-3.5,7.8-9.6,12.3-18,13.9   c-3.6,0.7-7.2,0.6-10.8,0.5c-2.8-0.1-3.6-1-3.7-3.9c-0.1-3.3-0.1-6.6-0.1-9.8c0-8,0-16,0-24c0-10.8,0.2-21.6-0.1-32.4   c0-0.2,0-0.5,0-0.7c0-4,1.3-5.4,5.2-5.6c4.1-0.2,8.1-0.1,12.1,0.9c5.8,1.5,10.4,4.8,13.7,9.8c2.8,4.2,4.4,8.9,5.1,13.8   C131.6,425.4,131.7,435.1,129.5,444.7z"/>
  <path class="st0" d="M253.5,484.6c-10.2-35.2-20.3-70.5-30.5-105.7c-0.6-2.1-1.3-4.3-2.1-6.4c-1.1-2.7-3.2-4.1-6.1-4.3   c-1.6-0.1-3.2-0.1-4.8-0.2c-3.9-0.2-7.8,0.3-11.7-0.2c-3.4-0.4-5.4,1-6.5,4.4c-0.6,1.8-1,3.7-1.6,5.5   c-8.8,31.3-17.6,62.6-26.4,93.9c-1.4,5.1-2.9,10.1-4.2,15.2c-0.8,3,0.1,4.2,3.2,4.3c2.6,0,5.1,0,7.7,0c3,0,5.9,0.1,8.9,0   c2.5-0.1,3.8-1.1,4.7-3.4c0.2-0.7,0.4-1.4,0.6-2.1c1.5-5.5,3.1-10.9,4.6-16.4c0.9-3.1,2.1-4.1,5.1-4.1c8,0,16,0,24,0   c3.1,0,4.5,1.1,5.3,4.1c1.6,6,3.2,12,4.8,18.1c0.8,2.9,1.8,3.7,4.7,3.7c2.9,0,5.8,0,8.6,0c2.2,0,4.3,0,6.5,0c1.3,0,2.6,0,3.8-0.1   c1.9-0.2,2.5-0.9,2.3-2.9C254.1,486.9,253.8,485.7,253.5,484.6z M212.9,444.5c-2.2,0-4.5,0-6.7,0c0,0,0,0,0,0c-2.5,0-5,0-7.4,0   c-2.8,0-3.3-0.7-2.6-3.3c2.6-9.6,5.3-19.2,7.9-28.9c0.5-1.9,1.1-3.8,1.6-5.8c0.1-0.4,0.1-0.9,0.6-0.9c0.6,0,0.7,0.5,0.9,0.9   c0.8,2.8,1.6,5.5,2.3,8.3c2.3,8.3,4.6,16.6,6.9,24.9C217.5,443.7,216.9,444.6,212.9,444.5z"/>
  <path class="st0" d="M752.7,471.5c0.1-3-1.2-4.4-4.2-4.8c-0.5-0.1-1-0.1-1.4-0.1c-8.6,0-17.3,0-25.9,0c-2.1,0-4.2,0.2-6.2,0.1   c-2.8-0.1-3.8-1.3-4.1-4c0-0.6-0.1-1.1,0-1.7c0.3-5,0.3-9.9,0-14.9c0-1,0-1.9,0.2-2.9c0.3-1.8,1.4-2.8,3.2-3.1   c0.7-0.1,1.4-0.2,2.1-0.2c8.9,0.3,17.8,0,26.6,0.1c0.7,0,1.4,0,2.2-0.1c2.2-0.3,3.2-1.4,3.5-3.6c0.1-0.6,0.1-1.3,0-1.9   c-0.2-3.8-0.3-7.5,0.1-11.3c0.1-0.7,0-1.4-0.1-2.1c-0.3-1.7-1.3-2.7-2.9-3.2c-1.3-0.4-2.7-0.3-4-0.3c-8.7,0-17.4,0-26.1,0   c-3.6,0-4.8-1.2-4.7-4.8c0.1-5.5,0.2-11-0.1-16.5c-0.2-3.7,1.3-5.1,4.9-5.2c0.2,0,0.5,0,0.7,0c8.9,0,17.8,0,26.6,0   c1.8,0,3.5,0.1,5.3,0c2.9-0.1,4.4-1.4,4.3-4.3c-0.1-4.8,0-9.6,0.1-14.4c0.1-2.8-1.4-4.3-4.2-4.6c-1.3-0.2-2.6-0.1-3.8-0.1   c-11,0-22.1,0.1-33.1,0.1c-6.6,0-13.1-0.1-19.7,0c-4,0-5.5,1.6-5.7,5.5c0,0.2,0,0.5,0,0.7c0,4.4,0.1,8.8,0.1,13.2   c0,14.2,0,28.3,0,42.5c0,0,0,0,0,0c0,7,0,14.1,0,21.1c0,9.2-0.1,18.4-0.1,27.6c0,3-0.3,6.1,0.2,9.1c0.3,2.3,1.5,3.4,3.8,3.6   c1.3,0.1,2.6,0.1,3.8,0.1c15.7,0,31.3,0,47,0c2.4,0,4.8,0.1,7.2,0c3.1-0.1,4.5-1.6,4.4-4.7C752.6,481.4,752.5,476.4,752.7,471.5z"/>
  <path class="st0" d="M674.8,373.2c0-0.8,0-1.6-0.1-2.4c-0.3-1.7-1-2.5-2.8-2.8c-1-0.2-2.1-0.2-3.1-0.2c-23.5,0-47,0-70.5,0   c-0.9,0-1.8,0-2.6,0.1c-2.4,0.3-3.5,1.3-3.5,3.8c0,5.1,0.1,10.2,0,15.4c-0.1,2.8,1.4,4,4.2,4.1c0.6,0,1.1,0,1.7,0   c5.6,0,11.2,0,16.8,0c1.1,0,2.2,0.1,3.3,0.3c2,0.5,2.8,1.1,3,3.2c0.2,1.3,0.2,2.7,0.2,4.1c0,28.6,0,57.1,0,85.7   c0,1.2-0.1,2.4,0.2,3.6c0.5,1.8,1.6,2.9,3.5,3.1c0.7,0.1,1.4,0.1,2.1,0.1c4.6-0.3,9.1-0.3,13.7,0c0.6,0,1.1,0,1.7,0   c2.4-0.2,3.4-1.2,3.9-3.5c0.2-1,0.2-2.1,0.2-3.1c0-14.7,0-29.4,0-44.1c0,0,0,0-0.1,0c0-8,0-16,0-24c0-7.1,0-14.2,0-21.4   c0-3.1,0.8-3.9,3.8-3.9c4.3-0.1,8.6,0,13,0c2.6,0,5.3,0.1,7.9,0c2.3-0.1,3.3-1.1,3.6-3.3c0.1-0.6,0-1.1,0-1.7   C674.7,381.8,674.6,377.5,674.8,373.2z"/>
  <path class="st0" d="M889.5,435.5c-5.8-10.4-14.7-13.6-25.4-11.9c-7.3,1.1-12.7,5.1-16.2,11.5c-7.9,14.3-7.5,28.7-0.2,43.1   c1.2,2.4,3,4.5,5,6.4c10.8,10.3,28,9.4,37.6-2c0.7-0.9,1.4-1.7,1.9-2.8c0.9-1.9,0.6-3.3-1-4.7c-1.3-1.1-2.8-1.9-4.3-2.5   c-1.7-0.7-3.3-0.6-4.8,0.3c-1,0.6-1.8,1.3-2.8,1.9c-8.3,5.1-18,1.1-20.1-8.2c-0.9-4.2,0.2-5.7,4.5-5.7c4.2,0,8.5,0,12.7,0   c4.2,0,8.5,0,12.7,0c3.6,0,4.7-1,4.8-4.7c0-2.8-0.1-5.6-0.4-8.4C892.9,443.4,891.6,439.3,889.5,435.5z M875.6,449.6   c-2.2,0.1-4.3,0-6.5,0c0,0,0,0,0,0.1c-2.2-0.1-4.3-0.2-6.5-0.3c-0.8,0-1.6-0.1-2.3-0.4c-1.2-0.5-1.7-1.3-1.6-2.6   c0.4-5.2,6.2-9.9,11.3-9.1c1,0.2,1.9,0.5,2.7,1c2.9,2.1,4.7,5,5.3,8.5C878.4,448.9,877.8,449.5,875.6,449.6z"/>
  <path class="st0" d="M834.5,432.5c-3-5.5-7.6-8.7-13.9-9.3c-5.2-0.4-9.9,1.1-14.4,3.8c-1.5,0.9-1.5,0.9-2.2-0.6   c-1.1-2.3-2.2-2.9-4.8-2.7c-1.9,0.2-3.8,0.5-5.7,0.3c-2.7-0.3-4,0.8-4.3,3.6c-0.1,0.6-0.1,1.3-0.1,1.9c0.3,9.3,0.1,18.6,0,27.8   c0,8,0,16,0,24c0,2.1,0.1,4.2,0.2,6.2c0.1,1.6,0.9,2.8,2.5,3.1c3,0.6,6.1,0.7,9.1,0.3c2.5-0.3,3.6-1.7,3.7-4.2c0.1-1.4,0-2.9,0-4.3   c0-11,0-22.1,0-33.1c0-2.3,0.4-4.6,1.3-6.8c1.7-3.8,5.1-5.6,9.6-5.1c3.3,0.3,5.4,2.6,6.3,6.6c0.4,1.9,0.5,3.8,0.5,5.7   c0,11.3,0,22.6,0,33.8c0,1.4,0,2.9,0.3,4.3c0.5,2.5,1.3,3.3,3.9,3.4c2.2,0.1,4.5,0,6.7-0.1c3.5-0.1,4.3-1,4.4-4.5   c0.1-5.8,0.1-11.7,0.2-17.5c0.1-8.8,0.1-17.6-0.7-26.4C836.9,439,836.2,435.6,834.5,432.5z"/>
  <path class="st0" d="M770.9,471.1c-5.4-0.1-10.3,4.6-10.5,9.8c-0.1,5.9,3.9,10.2,9.8,10.3c5.8,0.1,10.2-3.9,10.3-9.6   C780.7,475.7,776.6,471.1,770.9,471.1z"/>
 </g>
 <path class="st0" d="M-36,421.1c-1.6-9.4-6-17.1-13.5-23c-8.9-7-19.1-9.5-30.2-7.8c-11.2,1.7-19.8,7.4-25.8,17.1  c-5.2,8.5-6.6,17.8-4.8,27.5c2.2,11.9,8.8,20.8,19.3,26.6c6.4,3.6,13.4,4.8,20.7,4.2c5.5-0.5,10.8-1.8,15.5-4.6  c12.8-7.4,18.8-18.9,19.4-32.6C-35.5,425.4-35.6,423.2-36,421.1z M-58.4,448.4c-14.3,10.3-33,4.2-39.1-12.5c-1-2.9-1.5-5.9-1.5-9.3  c0.2-7.6,3.2-14.4,9.5-19.5c4.5-3.6,9.8-5.4,15.6-5.3c5.8,0.1,11.1,1.6,15.8,5.1c5.9,4.5,9.4,10.4,10.1,17.8  C-47,434.6-50.4,442.7-58.4,448.4z"/>
</svg>
